<?xml version="1.0" encoding="UTF-8"?>
<svg xmlns="http://www.w3.org/2000/svg" xmlns:xlink="http://www.w3.org/1999/xlink" width="75pt" height="74.999997pt" viewBox="0 0 75 74.999997" version="1.2">
<defs>
<clipPath id="clip1">
  <path d="M 1.726562 1.433594 L 75 1.433594 L 75 74.875 L 1.726562 74.875 Z M 1.726562 1.433594 "/>
</clipPath>
</defs>
<g id="surface1">
<g clip-path="url(#clip1)" clip-rule="nonzero">
<path style=" stroke:none;fill-rule:nonzero;fill:rgb(12.548828%,11.759949%,11.369324%);fill-opacity:1;" d="M 31.773438 71.359375 C 31.128906 70.820312 30.664062 70.167969 30.796875 69.445312 C 31.164062 67.480469 32.472656 69.300781 32.472656 68.207031 C 32.472656 67.117188 31.816406 66.898438 31.816406 66.898438 C 32.765625 66.679688 33.273438 65.660156 33.929688 65.148438 C 34.585938 64.636719 35.023438 62.453125 35.023438 62.453125 C 38.082031 62.527344 38.375 58.230469 39.101562 57.28125 C 39.832031 56.335938 43.183594 55.386719 40.707031 54.222656 C 38.230469 53.054688 37.5 53.347656 35.460938 52.546875 C 33.421875 51.746094 31.890625 51.816406 31.890625 51.816406 C 32.183594 51.597656 32.546875 48.902344 29.921875 48.613281 C 27.300781 48.320312 25.261719 46.28125 25.261719 46.28125 C 22.710938 46.5 21.035156 45.042969 21.035156 45.042969 C 19.070312 44.96875 18.195312 47.011719 18.195312 47.011719 C 16.957031 46.207031 15.9375 47.011719 15.9375 47.011719 C 14.988281 46.425781 14.917969 45.40625 14.917969 45.40625 C 14.917969 43.003906 14.261719 43.367188 14.261719 43.367188 C 12.441406 43.367188 12.804688 42.785156 12.804688 42.785156 C 12.730469 41.835938 13.316406 40.015625 13.316406 40.015625 C 12.222656 40.015625 11.636719 40.890625 11.636719 40.890625 C 9.234375 43.949219 8.140625 37.464844 9.308594 35.863281 C 10.472656 34.261719 11.859375 35.355469 11.859375 35.355469 C 12.074219 34.84375 14.625 34.113281 14.699219 35.355469 C 14.769531 36.59375 15.9375 38.050781 15.9375 38.050781 C 16.15625 36.648438 15.882812 33.988281 15.882812 33.988281 C 18.832031 32.183594 18.394531 31.035156 18.394531 31.035156 C 19.324219 27.484375 21.890625 27.921875 21.890625 27.921875 C 21.507812 26.339844 24.515625 25.628906 24.515625 25.628906 C 23.875 27.046875 26.589844 25.574219 26.589844 25.574219 C 27.410156 24.808594 26.261719 24.972656 26.261719 24.972656 C 24.625 25.300781 25.28125 23.277344 25.28125 23.277344 C 23.558594 23.148438 22.726562 23.976562 22.472656 24.300781 C 23.652344 22.621094 24.953125 22.460938 24.953125 22.460938 C 27.890625 22.621094 28.601562 22.269531 28.777344 22.078125 C 28.347656 22.886719 27.34375 23.9375 29.433594 23.988281 C 31.617188 24.042969 32 23.113281 30.632812 22.953125 C 29.269531 22.789062 29.652344 22.1875 29.652344 22.1875 C 31.070312 19.945312 27.902344 19.015625 27.957031 18.851562 C 28.011719 18.6875 27.902344 15.355469 27.300781 16.339844 C 26.699219 17.324219 25.445312 17.324219 25.445312 17.324219 C 25.445312 17.324219 25.28125 15.300781 23.3125 15.136719 C 21.347656 14.972656 21.671875 15.574219 21.671875 16.832031 C 21.671875 18.089844 22.929688 17.980469 21.183594 18.851562 C 19.433594 19.726562 19.652344 20.601562 19.378906 21.585938 C 19.105469 22.570312 18.722656 21.75 18.722656 21.75 C 18.832031 18.6875 18.230469 19.015625 18.230469 19.015625 C 14.898438 17.980469 16.210938 16.832031 17.902344 14.972656 C 19.597656 13.117188 21.238281 14.046875 21.238281 14.046875 C 22.820312 14.261719 20.800781 12.898438 21.238281 12.898438 C 21.671875 12.898438 22.820312 11.914062 23.53125 11.203125 C 24.242188 10.492188 23.3125 10.332031 22.164062 11.039062 C 21.019531 11.75 22 9.238281 22 9.238281 C 21.457031 9.074219 21.292969 10.984375 18.503906 11.476562 C 18.085938 11.550781 17.75 11.582031 17.476562 11.582031 C 23.246094 7.015625 30.535156 4.285156 38.445312 4.285156 C 45.410156 4.285156 51.890625 6.402344 57.277344 10.019531 C 57.261719 10.023438 57.242188 10.03125 57.222656 10.039062 C 56.476562 10.367188 56.769531 10.730469 56.769531 10.730469 C 57.132812 12.007812 57.605469 14.191406 56.839844 14.738281 C 56.078125 15.285156 56.476562 15.757812 56.476562 15.757812 C 58.515625 19.835938 58.007812 15.757812 59.28125 17.214844 C 60.558594 18.671875 59.355469 19.253906 60.703125 19.289062 C 62.050781 19.328125 62.558594 17.179688 61.394531 16.523438 C 60.230469 15.867188 59.9375 13.242188 59.9375 13.242188 C 60.519531 12.953125 60.59375 13.425781 60.59375 13.425781 C 60.410156 13.828125 61.175781 15.867188 61.867188 16.121094 C 62.558594 16.375 62.816406 16.558594 63.070312 17.761719 C 63.324219 18.964844 63.617188 18.816406 63.617188 18.816406 C 64.015625 20.238281 62.160156 19.65625 60.191406 20.09375 C 58.226562 20.527344 58.773438 21.695312 58.773438 21.695312 L 58.117188 21.695312 L 57.753906 22.605469 C 54.472656 24.28125 57.097656 24.5 57.097656 24.5 C 57.097656 24.5 58.554688 26.683594 56.78125 26.757812 C 55.011719 26.832031 54.546875 27.851562 54.402344 29.234375 C 54.253906 30.621094 56.367188 30.910156 56.367188 30.910156 L 56.78125 31.710938 C 56.78125 31.710938 54.910156 33.167969 54.472656 34.773438 C 54.039062 36.375 51.707031 38.339844 51.414062 38.777344 C 51.125 39.214844 52.144531 41.472656 51.195312 42.785156 C 50.25 44.09375 51.195312 45.40625 51.195312 45.40625 C 52.214844 45.480469 53.746094 50.433594 55.640625 49.484375 C 55.765625 49.421875 55.890625 49.363281 56.011719 49.3125 C 57.710938 48.558594 58.917969 48.683594 58.917969 48.683594 C 61.25 47.664062 61.46875 49.558594 61.46875 49.558594 C 62.996094 49.050781 62.777344 50.578125 62.777344 50.578125 C 60.882812 52.691406 62.632812 52.546875 61.976562 55.460938 C 61.320312 58.375 59.425781 58.445312 59.28125 60.703125 C 59.136719 62.964844 56.511719 66.097656 56.511719 66.097656 C 56.511719 66.097656 56.648438 66.378906 57.167969 66.363281 C 51.800781 69.9375 45.363281 72.019531 38.445312 72.019531 C 36.164062 72.019531 33.933594 71.792969 31.773438 71.359375 Z M 4.578125 38.152344 C 4.578125 37.230469 4.617188 36.3125 4.691406 35.40625 C 5.566406 37.582031 6.945312 38.769531 6.902344 39.578125 C 6.832031 40.960938 6.539062 41.691406 9.234375 42.785156 C 11.929688 43.875 13.316406 45.554688 13.898438 46.136719 C 14.480469 46.71875 15.71875 48.320312 16.519531 47.738281 C 17.320312 47.152344 19.289062 49.484375 18.269531 50.433594 C 17.246094 51.378906 17.757812 52.835938 17.757812 52.835938 C 17.757812 52.835938 19.359375 58.300781 22.855469 59.246094 C 26.355469 60.195312 25.769531 61.433594 25.769531 61.433594 C 25.691406 66.589844 28.371094 69.539062 30.785156 71.148438 C 15.789062 67.664062 4.578125 54.195312 4.578125 38.152344 Z M 60.265625 27.339844 C 60.191406 26.574219 61.46875 26.902344 61.46875 26.902344 C 61.722656 26.066406 62.449219 26.394531 62.449219 26.394531 C 62.488281 26.792969 63.652344 27.996094 64.597656 28.359375 C 65.546875 28.722656 65.910156 29.320312 65.074219 29.726562 C 64.238281 30.132812 64.964844 30.4375 64.964844 30.4375 C 65.472656 30.835938 65.984375 29.597656 65.949219 28.832031 C 65.910156 28.070312 65.546875 27.921875 64.929688 27.484375 C 64.308594 27.046875 63.46875 25.664062 63.46875 25.664062 C 66.640625 27.230469 66.894531 29.488281 67.367188 30.144531 C 67.839844 30.800781 67.695312 31.675781 68.167969 30.617188 C 68.644531 29.5625 66.785156 29.199219 68.132812 28.359375 C 69.480469 27.523438 68.972656 25.117188 68.972656 25.117188 C 69.550781 26.085938 69.898438 26.027344 70.035156 25.941406 C 70.246094 26.488281 70.445312 27.046875 70.632812 27.609375 C 70.46875 27.5 70.316406 27.429688 70.207031 27.484375 C 69.917969 27.632812 70.355469 27.996094 69.480469 28.179688 C 68.605469 28.359375 69.078125 29.378906 69.078125 29.378906 C 69.410156 31.3125 71.410156 31.382812 71.410156 31.382812 L 71.410156 34.113281 C 69.699219 34.152344 68.167969 33.023438 68.167969 33.023438 C 67.148438 32.730469 67.292969 34.332031 67.292969 34.332031 C 64.382812 31.492188 63.542969 34.589844 63.871094 31.789062 C 64.199219 28.988281 59.863281 31.710938 58.261719 31.785156 C 56.660156 31.855469 57.425781 30.726562 57.425781 30.726562 C 59.246094 31.019531 59.210938 27.886719 59.390625 28.105469 C 59.574219 28.324219 60.339844 28.105469 60.265625 27.339844 Z M 38.445312 1.429688 C 18.199219 1.429688 1.722656 17.90625 1.722656 38.152344 C 1.722656 58.402344 18.199219 74.875 38.445312 74.875 C 58.695312 74.875 75.167969 58.402344 75.167969 38.152344 C 75.167969 17.90625 58.695312 1.429688 38.445312 1.429688 "/>
</g>
<path style=" stroke:none;fill-rule:nonzero;fill:rgb(12.548828%,11.759949%,11.369324%);fill-opacity:1;" d="M 14.335938 39.578125 C 14.335938 39.578125 15.34375 39.433594 16.949219 40.597656 C 18.558594 41.765625 19.140625 40.597656 19.140625 40.597656 C 19.140625 40.597656 15.574219 38.371094 14.335938 39.578125 "/>
<path style=" stroke:none;fill-rule:nonzero;fill:rgb(12.548828%,11.759949%,11.369324%);fill-opacity:1;" d="M 19.726562 41.363281 C 19.726562 41.363281 20.234375 42.128906 21.183594 41.945312 C 22.128906 41.765625 22.601562 41.785156 23.113281 41.972656 C 23.113281 41.972656 20.671875 40.488281 19.726562 41.363281 "/>
<path style=" stroke:none;fill-rule:nonzero;fill:rgb(12.548828%,11.759949%,11.369324%);fill-opacity:1;" d="M 54.511719 19.234375 C 54.511719 19.808594 55.410156 19.78125 55.167969 20.929688 C 54.921875 22.078125 55.261719 22.589844 55.574219 22.542969 C 55.574219 22.542969 57.296875 22.324219 57.625 21.832031 C 57.953125 21.339844 58.390625 20.820312 56.96875 20.4375 C 55.546875 20.054688 55.496094 18.089844 55.21875 17.789062 C 54.945312 17.488281 54.101562 17.761719 54.210938 17.160156 C 54.320312 16.558594 52.734375 17.324219 53.363281 17.980469 C 53.992188 18.636719 54.511719 18.660156 54.511719 19.234375 "/>
<path style=" stroke:none;fill-rule:nonzero;fill:rgb(12.548828%,11.759949%,11.369324%);fill-opacity:1;" d="M 53.214844 21.832031 C 53.445312 21.695312 54.292969 21.585938 54.347656 20.628906 C 54.402344 19.671875 54.007812 19.316406 53.78125 19.316406 C 53.554688 19.316406 52.746094 19.316406 52.980469 20.574219 C 53.214844 21.832031 53.214844 21.832031 53.214844 21.832031 "/>
</g>
</svg>
